<svg width="400" height="98" viewBox="0 0 400 98" fill="none" xmlns="http://www.w3.org/2000/svg">
<path fill-rule="evenodd" clip-rule="evenodd" d="M10 0C4.47715 0 0 4.47715 0 10V88C0 93.5229 4.47714 98 9.99999 98H390C395.523 98 400 93.5229 400 88V10C400 4.47715 395.523 0 390 0H10ZM75.824 48.48L86.448 48.8L87.6 64.928C87.6427 66.0373 87.9627 66.8907 88.56 67.488C89.1573 68.0853 89.8613 68.384 90.672 68.384C91.5253 68.384 92.1867 68.064 92.656 67.424C93.168 66.7413 93.424 66.016 93.424 65.248C93.424 64.4373 93.1467 62.5387 92.592 59.552C92.0373 56.5653 91.4827 52.32 90.928 46.816C90.3733 41.312 90.096 35.1467 90.096 28.32H91.632C93.3813 28.32 94.256 27.5307 94.256 25.952C94.256 25.2267 94.0213 24.6293 93.552 24.16C93.0827 23.6907 92.464 23.456 91.696 23.456L76.528 23.84L62.576 23.456C61.936 23.456 61.3387 23.6907 60.784 24.16C60.272 24.6293 60.016 25.248 60.016 26.016C60.016 26.7413 60.272 27.3173 60.784 27.744C61.296 28.128 61.8933 28.32 62.576 28.32C63.3013 28.32 65.3493 28.1707 68.72 27.872C72.0907 27.5307 74.608 27.36 76.272 27.36C73.0293 30.432 69.5947 36 65.968 44.064L61.488 44C60.8907 44 60.336 44.2347 59.824 44.704C59.312 45.1733 59.056 45.7707 59.056 46.496C59.056 47.2213 59.2907 47.7973 59.76 48.224C60.272 48.608 60.8693 48.8 61.552 48.8H63.856C62.9173 51.488 61.808 53.856 60.528 55.904C59.2907 57.952 58.1813 59.424 57.2 60.32C54.8533 62.624 53.68 64.3733 53.68 65.568C53.68 67.4453 54.512 68.384 56.176 68.384C58.096 68.384 60.1013 66.3573 62.192 62.304C63.1307 60.4693 63.9627 58.656 64.688 56.864C65.4133 55.0293 65.9893 53.4293 66.416 52.064C66.8853 50.6987 67.312 49.568 67.696 48.672L75.824 48.48ZM83.696 27.488L85.296 27.552C85.296 29.088 85.5733 34.5707 86.128 44C80.496 44.1707 77.2533 44.256 76.4 44.256C75.5467 44.256 73.2853 44.2133 69.616 44.128C74.1813 33.504 78.8747 27.9573 83.696 27.488ZM107.229 43.04C112.35 43.3813 115.016 43.552 115.229 43.552C116.894 43.552 117.726 42.7627 117.726 41.184C117.726 39.6053 116.894 38.816 115.229 38.816L107.486 39.328C107.614 37.536 107.677 35.8933 107.677 34.4C107.677 32.9067 107.422 31.84 106.91 31.2C106.397 30.5173 105.736 30.176 104.925 30.176C104.115 30.176 103.411 30.5387 102.813 31.264C102.259 31.9467 101.981 32.8853 101.981 34.08C101.981 35.232 102.024 36.9173 102.109 39.136H100.766C100.168 39.136 99.6775 39.328 99.2935 39.712C98.9095 40.0533 98.7175 40.544 98.7175 41.184C98.7175 41.824 98.9095 42.336 99.2935 42.72C99.6775 43.0613 100.168 43.232 100.766 43.232H102.301C102.429 45.3227 102.493 47.6907 102.493 50.336L102.749 63.328C102.749 66.6987 103.816 68.384 105.95 68.384C106.76 68.384 107.486 68.0853 108.126 67.488C108.766 66.848 109.086 66.0587 109.086 65.12C109.086 64.1813 108.68 63.136 107.869 61.984C107.102 60.7893 106.717 59.3173 106.717 57.568C106.717 55.776 106.803 53.0453 106.974 49.376C107.144 45.7067 107.229 43.5947 107.229 43.04ZM122.904 33.568C123.117 36.8107 123.224 46.7307 123.224 63.328C123.224 66.6987 124.291 68.384 126.424 68.384C127.235 68.384 127.96 68.0853 128.6 67.488C129.24 66.848 129.56 66.0587 129.56 65.12C129.56 64.1813 129.133 63.136 128.28 61.984C127.469 60.7893 127.064 59.552 127.064 58.272C127.064 52.9813 127.277 44.9173 127.704 34.08C127.917 29.472 128.024 25.824 128.024 23.136C128.024 22.24 127.768 21.4933 127.256 20.896C126.744 20.2987 126.083 20 125.272 20C124.461 20 123.757 20.2987 123.16 20.896C122.605 21.4933 122.328 22.2827 122.328 23.264C122.328 24.2453 122.52 27.68 122.904 33.568ZM159.054 62.56C158.115 61.2373 157.497 60.192 157.198 59.424L155.982 56.032C153.977 50.1013 151.63 45.7493 148.942 42.976C146.254 40.2027 143.523 38.816 140.75 38.816C139.769 38.816 138.915 39.0933 138.19 39.648C137.507 40.2027 137.166 40.928 137.166 41.824C137.166 42.6773 137.379 43.2533 137.806 43.552C138.233 43.8507 138.809 44.0213 139.534 44.064C140.302 44.064 141.113 44.128 141.966 44.256C142.819 44.384 143.758 44.832 144.782 45.6C145.849 46.3253 146.809 47.4347 147.662 48.928C144.078 49.0987 141.177 50.3573 138.958 52.704C136.739 55.0507 135.63 57.8453 135.63 61.088C135.63 63.1787 136.334 64.928 137.742 66.336C139.193 67.7013 141.006 68.384 143.182 68.384C147.534 68.384 150.798 66.1013 152.974 61.536L153.486 62.944C154.851 66.5707 156.409 68.384 158.158 68.384C158.883 68.384 159.459 68.1493 159.886 67.68C160.313 67.168 160.526 66.5067 160.526 65.696C160.526 64.8853 160.035 63.84 159.054 62.56ZM141.902 53.856C143.139 52.832 144.526 52.32 146.062 52.32C147.598 52.32 148.921 52.6613 150.03 53.344C150.115 53.5573 150.35 54.1333 150.734 55.072C151.118 55.968 151.31 56.9493 151.31 58.016C151.31 59.5093 150.755 60.8107 149.646 61.92C148.537 62.9867 147.214 63.52 145.678 63.52C144.142 63.52 142.819 62.9867 141.71 61.92C140.643 60.8107 140.11 59.4453 140.11 57.824C140.11 56.2027 140.707 54.88 141.902 53.856ZM166.925 67.424C167.906 68.064 169.186 68.384 170.765 68.384C174.52 68.384 178.018 67.232 181.261 64.928C184.504 62.624 186.125 60.0853 186.125 57.312C186.125 55.52 185.293 54.0693 183.629 52.96C182.008 51.808 180.216 51.04 178.253 50.656C176.29 50.272 174.477 49.76 172.813 49.12C171.192 48.48 170.381 47.7333 170.381 46.88C170.381 46.0267 170.893 45.3013 171.917 44.704C172.984 44.1067 174.221 43.808 175.629 43.808C177.08 43.808 178.466 44.064 179.789 44.576C181.112 45.088 182.05 45.344 182.605 45.344C183.202 45.344 183.778 45.0667 184.333 44.512C184.93 43.9147 185.229 43.1253 185.229 42.144C185.229 41.1627 184.76 40.3733 183.821 39.776C182.925 39.136 181.624 38.816 179.917 38.816C176.376 38.816 173.133 39.8827 170.189 42.016C167.245 44.1067 165.773 46.304 165.773 48.608C165.773 50.016 166.306 51.2107 167.373 52.192C168.482 53.1307 169.805 53.8347 171.341 54.304C172.877 54.7733 174.413 55.2 175.949 55.584C177.485 55.9253 178.786 56.3947 179.853 56.992C180.962 57.5893 181.517 58.4427 181.517 59.552C181.517 60.6187 180.792 61.536 179.341 62.304C177.89 63.0293 176.44 63.392 174.989 63.392C173.581 63.392 172.216 63.136 170.893 62.624C169.57 62.112 168.61 61.856 168.013 61.856C167.458 61.856 166.882 62.1547 166.285 62.752C165.73 63.3067 165.453 64.0747 165.453 65.056C165.453 65.9947 165.944 66.784 166.925 67.424ZM213.425 67.424C214.406 68.064 215.686 68.384 217.265 68.384C221.02 68.384 224.518 67.232 227.761 64.928C231.004 62.624 232.625 60.0853 232.625 57.312C232.625 55.52 231.793 54.0693 230.129 52.96C228.508 51.808 226.716 51.04 224.753 50.656C222.79 50.272 220.977 49.76 219.313 49.12C217.692 48.48 216.881 47.7333 216.881 46.88C216.881 46.0267 217.393 45.3013 218.417 44.704C219.484 44.1067 220.721 43.808 222.129 43.808C223.58 43.808 224.966 44.064 226.289 44.576C227.612 45.088 228.55 45.344 229.105 45.344C229.702 45.344 230.278 45.0667 230.833 44.512C231.43 43.9147 231.729 43.1253 231.729 42.144C231.729 41.1627 231.26 40.3733 230.321 39.776C229.425 39.136 228.124 38.816 226.417 38.816C222.876 38.816 219.633 39.8827 216.689 42.016C213.745 44.1067 212.273 46.304 212.273 48.608C212.273 50.016 212.806 51.2107 213.873 52.192C214.982 53.1307 216.305 53.8347 217.841 54.304C219.377 54.7733 220.913 55.2 222.449 55.584C223.985 55.9253 225.286 56.3947 226.353 56.992C227.462 57.5893 228.017 58.4427 228.017 59.552C228.017 60.6187 227.292 61.536 225.841 62.304C224.39 63.0293 222.94 63.392 221.489 63.392C220.081 63.392 218.716 63.136 217.393 62.624C216.07 62.112 215.11 61.856 214.513 61.856C213.958 61.856 213.382 62.1547 212.785 62.752C212.23 63.3067 211.953 64.0747 211.953 65.056C211.953 65.9947 212.444 66.784 213.425 67.424ZM266.337 62.176C265.484 61.1947 264.93 60.0853 264.673 58.848L262.242 47.84C260.961 41.824 258.082 38.816 253.602 38.816C250.316 38.816 247.415 40.6933 244.898 44.448C244.898 41.4187 244.983 37.536 245.154 32.8C245.367 28.0213 245.473 24.992 245.473 23.712C245.473 22.3893 245.217 21.4507 244.706 20.896C244.193 20.2987 243.532 20 242.721 20C241.911 20 241.207 20.2987 240.609 20.896C240.055 21.4933 239.777 22.4533 239.777 23.776C239.777 25.0987 239.884 28.064 240.098 32.672C240.311 37.28 240.417 40.9493 240.417 43.68C240.417 46.4107 240.311 50.272 240.098 55.264C239.884 60.2133 239.777 63.3493 239.777 64.672C239.777 65.9947 240.055 66.9547 240.609 67.552C241.207 68.1067 241.911 68.384 242.721 68.384C243.532 68.384 244.193 68.1067 244.706 67.552C245.217 66.9547 245.473 66.3787 245.473 65.824C245.473 65.2267 245.303 59.872 244.962 49.76C245.004 48.224 245.538 46.816 246.561 45.536C247.628 44.2133 249.1 43.552 250.978 43.552C252.898 43.552 254.305 44.128 255.202 45.28C256.14 46.432 256.823 47.9893 257.25 49.952L260.065 63.328C260.322 64.608 260.684 65.696 261.154 66.592C261.495 67.1893 261.922 67.6373 262.434 67.936C262.945 68.2347 263.607 68.384 264.418 68.384C265.228 68.384 265.975 68.0853 266.658 67.488C267.34 66.848 267.681 66.0373 267.681 65.056C267.681 64.0747 267.233 63.1147 266.337 62.176ZM275.762 53.6C275.762 50.8693 276.7 48.5653 278.578 46.688C280.497 44.8107 282.802 43.872 285.49 43.872C288.22 43.872 290.503 44.8107 292.337 46.688C294.172 48.5653 295.09 50.8693 295.09 53.6C295.09 56.3307 294.172 58.656 292.337 60.576C290.503 62.4533 288.22 63.392 285.49 63.392C282.802 63.392 280.497 62.4533 278.578 60.576C276.7 58.656 275.762 56.3307 275.762 53.6ZM274.289 65.184C276.124 67.3173 278.407 68.384 281.138 68.384C283.868 68.384 286.578 67.6373 289.266 66.144C291.953 64.6507 294.3 62.4107 296.306 59.424C298.311 56.3947 299.314 53.28 299.314 50.08C299.314 46.8373 298.396 44.1493 296.561 42.016C294.727 39.8827 292.444 38.816 289.714 38.816C286.983 38.816 284.273 39.5627 281.586 41.056C278.897 42.5493 276.551 44.8107 274.546 47.84C272.54 50.8267 271.538 53.9413 271.538 57.184C271.538 60.384 272.455 63.0507 274.289 65.184ZM306.314 85.6C306.953 86.24 307.679 86.56 308.49 86.56C310.751 86.56 311.882 84.8747 311.882 81.504C311.882 79.584 311.711 75.9573 311.37 70.624C311.028 65.2907 310.858 61.3867 310.858 58.912C310.858 54.2613 311.625 50.592 313.161 47.904C314.74 45.216 317.194 43.872 320.522 43.872C323.082 43.872 325.236 44.8107 326.986 46.688C328.735 48.5653 329.609 50.8693 329.609 53.6C329.609 56.3307 328.735 58.656 326.986 60.576C325.236 62.4533 323.082 63.392 320.522 63.392C319.924 63.392 319.263 63.2853 318.538 63.072C317.855 62.8587 317.194 62.752 316.553 62.752C315.914 62.752 315.273 62.9653 314.634 63.392C313.993 63.8187 313.673 64.48 313.673 65.376C313.673 67.3813 314.698 68.384 316.746 68.384C318.495 68.384 320.329 67.936 322.25 67.04C324.169 66.1013 325.983 64.8427 327.69 63.264C329.396 61.6853 330.804 59.68 331.914 57.248C333.023 54.816 333.578 52.192 333.578 49.376C333.578 46.56 332.703 44.1067 330.953 42.016C329.204 39.8827 326.9 38.816 324.042 38.816C321.866 38.816 319.497 39.5413 316.938 40.992C314.42 42.4427 312.266 44.4053 310.474 46.88V43.872C310.474 40.5013 309.407 38.816 307.273 38.816C306.463 38.816 305.737 39.136 305.098 39.776C304.457 40.3733 304.138 41.1627 304.138 42.144C304.138 43.1253 304.479 44.256 305.161 45.536C305.887 46.816 306.271 47.9467 306.314 48.928C306.527 54.0053 306.634 59.5947 306.634 65.696C306.634 71.7973 306.42 76.1493 305.993 78.752C305.609 81.3547 305.418 82.7627 305.418 82.976C305.418 84.128 305.716 85.0027 306.314 85.6Z" fill="#FF4C4C"/>
</svg>
