<svg width="100" height="100" viewBox="0 0 100 100" fill="none" xmlns="http://www.w3.org/2000/svg">
<circle cx="50" cy="50" r="50" fill="#FF4C4C"/>
<path d="M48.9389 42.3523C49.0674 42.0557 49.19 41.7474 49.3046 41.4401C49.3922 41.6228 49.4866 41.8051 49.5849 41.9845C49.8809 42.5245 50.2243 43.0597 50.5526 43.5301H48.3502C48.5598 43.1775 48.7578 42.7703 48.9389 42.3523Z" stroke="black" stroke-width="1.2" stroke-linejoin="bevel"/>
<path d="M49.9999 19.3155C47.3901 28.9195 38.1619 49.8813 22.1274 56.8963" stroke="black" stroke-width="1.5" stroke-linecap="round" stroke-linejoin="round"/>
<path d="M49.9999 19.3155C52.6101 28.921 61.8397 49.8859 77.8766 56.9021" stroke="black" stroke-width="1.5" stroke-linecap="round" stroke-linejoin="round"/>
<path d="M41.143 46.6587C43.4859 44.6763 47.7512 36.1456 49.591 32.1281C52.2944 39.247 56.6498 44.7814 58.4896 46.6587C54.4346 46.6587 50.4922 48.461 49.591 52.9666C48.9603 48.1906 43.6962 46.7714 41.143 46.6587Z" stroke="black" stroke-width="2"/>
<path d="M36.3233 50.0698C39.7768 49.7451 46.3651 50.3886 45.09 55.5601" stroke="black" stroke-width="1.5" stroke-linecap="round"/>
<path d="M62.7946 50.2224C59.3393 49.9385 52.7476 50.5011 54.0234 55.0224" stroke="black" stroke-width="1.5" stroke-linecap="round"/>
<path d="M49.4745 61.2574H30.0814C24.6943 61.2573 21.9241 65.0283 25.464 68.0296C27.2354 69.5314 30.6969 68.0296 30.0814 65.1821C29.7657 63.7216 27.3108 63.4121 26.8491 65.1821C26.8235 65.4643 26.8799 66.1364 27.3108 66.5673" stroke="black" stroke-width="1.5" stroke-linecap="round"/>
<path d="M50.0001 61.2574H69.3899C74.776 61.2573 77.5458 65.0283 74.0064 68.0296C72.2354 69.5314 68.7744 68.0296 69.3899 65.1821C69.7055 63.7216 72.16 63.4121 72.6216 65.1821C72.6473 65.4643 72.5908 66.1364 72.16 66.5673" stroke="black" stroke-width="1.5" stroke-linecap="round"/>
<path d="M42.746 55.4643C42.4913 57.3322 40.6155 58.3244 36.6837 58.3244C33.0535 58.3244 29.2725 58.3244 29.2725 58.3244C31.2069 56.0792 35.0759 52.8716 37.3034 52.8716C40.1465 52.4656 42.2568 53.4243 42.746 55.4643Z" fill="black"/>
<path d="M40.7874 55.6002C40.632 56.6685 39.4877 57.2359 37.0891 57.2359C34.8746 57.2359 32.568 57.2359 32.568 57.2359C33.7481 55.9519 36.1083 54.1174 37.4672 54.1174C39.2016 53.8852 40.489 54.4335 40.7874 55.6002Z" fill="#FF4C4C"/>
<path d="M56.0593 55.3672C56.3139 57.2985 58.1894 58.3244 62.1203 58.3244C65.7498 58.3244 69.53 58.3244 69.53 58.3244C67.5959 56.003 63.7278 52.6865 61.5007 52.6865C58.6582 52.2667 56.5484 53.2579 56.0593 55.3672Z" fill="black"/>
<path d="M58.1257 55.4642C58.281 56.5687 59.4251 57.1554 61.8232 57.1554C64.0373 57.1554 66.3433 57.1554 66.3433 57.1554C65.1635 55.8278 62.8038 53.9311 61.4452 53.9311C59.7111 53.6909 58.424 54.2578 58.1257 55.4642Z" fill="#FF4C4C"/>
</svg>
