<svg width="38" height="40" viewBox="0 0 38 40" fill="none" xmlns="http://www.w3.org/2000/svg">
<path d="M3.58743 5L4.00173 5.14717C6.06616 5.88053 7.09838 6.2472 7.68878 7.12016C8.27919 7.99312 8.27919 9.15266 8.27919 11.4717V15.8333C8.27919 20.5474 8.27919 22.9044 9.65337 24.3689C11.0276 25.8333 13.2393 25.8333 17.6627 25.8333H30.174" stroke="white" stroke-width="1.5" stroke-linecap="round"/>
<path d="M12.189 30C13.4846 30 14.5349 31.1193 14.5349 32.5C14.5349 33.8807 13.4846 35 12.189 35C10.8934 35 9.84311 33.8807 9.84311 32.5C9.84311 31.1193 10.8934 30 12.189 30Z" stroke="white" stroke-width="1.5"/>
<path d="M26.2642 30.0001C27.5598 30.0001 28.6101 31.1194 28.6101 32.5001C28.6101 33.8808 27.5598 35.0001 26.2642 35.0001C24.9687 35.0001 23.9184 33.8808 23.9184 32.5001C23.9184 31.1194 24.9687 30.0001 26.2642 30.0001Z" stroke="white" stroke-width="1.5"/>
<path d="M8.27917 10H26.1866C29.4004 10 31.0074 10 31.7027 11.1238C32.398 12.2475 31.765 13.8216 30.499 16.9696L29.8288 18.6363C29.2377 20.106 28.9422 20.8409 28.3546 21.2538C27.7671 21.6667 27.0168 21.6667 25.5164 21.6667H8.27917" stroke="white" stroke-width="1.5"/>
</svg>
