<svg width="50" height="50" viewBox="0 0 50 50" fill="none" xmlns="http://www.w3.org/2000/svg">
<path d="M37.8751 16.7486L38.8406 15.7831C40.4403 14.1834 43.0339 14.1834 44.6336 15.7831C46.2333 17.3828 46.2333 19.9764 44.6336 21.5761L43.6681 22.5416M37.8751 16.7486C37.8751 16.7486 37.9958 18.8003 39.8061 20.6106C41.6164 22.4209 43.6681 22.5416 43.6681 22.5416M37.8751 16.7486L28.9988 25.6249C28.3976 26.2261 28.097 26.5267 27.8384 26.8582C27.5335 27.2492 27.272 27.6722 27.0587 28.1198C26.8778 28.4993 26.7434 28.9026 26.4745 29.7092L25.6137 32.2917L25.3352 33.1272M43.6681 22.5416L34.7918 31.4179C34.1906 32.0191 33.89 32.3197 33.5585 32.5782C33.1675 32.8832 32.7445 33.1447 32.2969 33.358C31.9174 33.5388 31.5141 33.6733 30.7075 33.9421L28.125 34.803L27.2895 35.0815M27.2895 35.0815L26.454 35.36C26.0571 35.4923 25.6194 35.389 25.3236 35.0931C25.0277 34.7972 24.9244 34.3596 25.0567 33.9627L25.3352 33.1272M27.2895 35.0815L25.3352 33.1272" stroke="white" stroke-width="2"/>
<path d="M16.6665 27.0833H21.8748" stroke="white" stroke-width="2" stroke-linecap="round"/>
<path d="M16.6665 18.75H30.2082" stroke="white" stroke-width="2" stroke-linecap="round"/>
<path d="M16.6665 35.4167H19.7915" stroke="white" stroke-width="2" stroke-linecap="round"/>
<path d="M41.3092 6.60744C38.8684 4.16666 34.9401 4.16666 27.0833 4.16666H22.9167C15.0599 4.16666 11.1316 4.16666 8.69078 6.60744C6.25 9.04822 6.25 12.9766 6.25 20.8333V29.1667C6.25 37.0234 6.25 40.9518 8.69078 43.3926C11.1316 45.8333 15.0599 45.8333 22.9167 45.8333H27.0833C34.9401 45.8333 38.8684 45.8333 41.3092 43.3926C43.274 41.4278 43.6572 38.4991 43.7319 33.3333" stroke="white" stroke-width="2" stroke-linecap="round"/>
</svg>
