<svg width="47" height="50" viewBox="0 0 47 50" fill="none" xmlns="http://www.w3.org/2000/svg">
<path fill-rule="evenodd" clip-rule="evenodd" d="M6 0C2.68629 0 0 2.68629 0 6V44C0 47.3137 2.6863 50 6.00001 50H40.9175C44.2312 50 46.9175 47.3137 46.9175 44V6C46.9175 2.68629 44.2312 0 40.9175 0H6ZM23.9619 26.8L30.6019 27L31.3219 37.08C31.3486 37.7733 31.5486 38.3067 31.9219 38.68C32.2952 39.0533 32.7352 39.24 33.2419 39.24C33.7752 39.24 34.1886 39.04 34.4819 38.64C34.8019 38.2133 34.9619 37.76 34.9619 37.28C34.9619 36.7733 34.7886 35.5867 34.4419 33.72C34.0952 31.8533 33.7486 29.2 33.4019 25.76C33.0552 22.32 32.8819 18.4667 32.8819 14.2H33.8419C34.9352 14.2 35.4819 13.7067 35.4819 12.72C35.4819 12.2667 35.3352 11.8933 35.0419 11.6C34.7486 11.3067 34.3619 11.16 33.8819 11.16L24.4019 11.4L15.6819 11.16C15.2819 11.16 14.9086 11.3067 14.5619 11.6C14.2419 11.8933 14.0819 12.28 14.0819 12.76C14.0819 13.2133 14.2419 13.5733 14.5619 13.84C14.8819 14.08 15.2552 14.2 15.6819 14.2C16.1352 14.2 17.4152 14.1067 19.5219 13.92C21.6286 13.7067 23.2019 13.6 24.2419 13.6C22.2152 15.52 20.0686 19 17.8019 24.04L15.0019 24C14.6286 24 14.2819 24.1467 13.9619 24.44C13.6419 24.7333 13.4819 25.1067 13.4819 25.56C13.4819 26.0133 13.6286 26.3733 13.9219 26.64C14.2419 26.88 14.6152 27 15.0419 27H16.4819C15.8952 28.68 15.2019 30.16 14.4019 31.44C13.6286 32.72 12.9352 33.64 12.3219 34.2C10.8552 35.64 10.1219 36.7333 10.1219 37.48C10.1219 38.6533 10.6419 39.24 11.6819 39.24C12.8819 39.24 14.1352 37.9733 15.4419 35.44C16.0286 34.2933 16.5486 33.16 17.0019 32.04C17.4552 30.8933 17.8152 29.8933 18.0819 29.04C18.3752 28.1867 18.6419 27.48 18.8819 26.92L23.9619 26.8ZM28.8819 13.68L29.8819 13.72C29.8819 14.68 30.0552 18.1067 30.4019 24C26.8819 24.1067 24.8552 24.16 24.3219 24.16C23.7886 24.16 22.3752 24.1333 20.0819 24.08C22.9352 17.44 25.8686 13.9733 28.8819 13.68Z" fill="#FF4C4C"/>
</svg>
