<svg width="24" height="24" viewBox="0 0 24 24" fill="none" xmlns="http://www.w3.org/2000/svg">
<path d="M2.00098 11.249C1.58676 11.249 1.25098 11.5848 1.25098 11.999C1.25098 12.4132 1.58676 12.749 2.00098 12.749L2.00098 11.249ZM16.001 11.999L16.4891 12.5685C16.6553 12.426 16.751 12.218 16.751 11.999C16.751 11.7801 16.6553 11.5721 16.4891 11.4296L16.001 11.999ZM12.9891 8.42958C12.6746 8.16001 12.2011 8.19644 11.9315 8.51093C11.662 8.82542 11.6984 9.2989 12.0129 9.56847L12.9891 8.42958ZM12.0129 14.4296C11.6984 14.6991 11.662 15.1726 11.9315 15.4871C12.2011 15.8016 12.6746 15.838 12.9891 15.5685L12.0129 14.4296ZM2.00098 12.749L16.001 12.749L16.001 11.249L2.00098 11.249L2.00098 12.749ZM16.4891 11.4296L12.9891 8.42958L12.0129 9.56847L15.5129 12.5685L16.4891 11.4296ZM15.5129 11.4296L12.0129 14.4296L12.9891 15.5685L16.4891 12.5685L15.5129 11.4296Z" fill="white"/>
<path d="M9.00195 7C9.01406 4.82497 9.11051 3.64706 9.87889 2.87868C10.7576 2 12.1718 2 15.0002 2L16.0002 2C18.8286 2 20.2429 2 21.1215 2.87868C22.0002 3.75736 22.0002 5.17157 22.0002 8L22.0002 16C22.0002 18.8284 22.0002 20.2426 21.1215 21.1213C20.2429 22 18.8286 22 16.0002 22H15.0002C12.1718 22 10.7576 22 9.87889 21.1213C9.11051 20.3529 9.01406 19.175 9.00195 17" stroke="white" stroke-width="1.5" stroke-linecap="round"/>
</svg>
